<svg width="78" height="78" viewBox="0 0 78 78" fill="none" xmlns="http://www.w3.org/2000/svg">
<g opacity="0.9" clip-path="url(#clip0)">
<path d="M4.91128 2.58211L9.97364 67.3458C10.0496 68.3183 10.7079 69.1477 11.6379 69.4425L38.2761 77.8881C38.7472 78.0374 39.2529 78.0374 39.724 77.8881L66.3622 69.4425C67.2921 69.1477 67.9504 68.3183 68.0264 67.3458L73.0888 2.58211C73.1976 1.18973 72.0972 0 70.7007 0H7.29954C5.90302 0 4.80259 1.18973 4.91128 2.58211ZM60.1067 22.6761H27.1144L28.11 31.8578H59.3891L57.343 58.0334L39.0001 63.8489L20.6573 58.0334L19.5883 44.3582H29.216V51.0661L39.2574 53.761L49.2387 51.0661L50.0131 40.3756H19.2769L17.2363 14.2686H60.7637L60.1067 22.6761Z" fill="white"/>
</g>
<defs>
<clipPath id="clip0">
<rect width="78" height="78" fill="white"/>
</clipPath>
</defs>
</svg>
